<?xml version="1.0" encoding="UTF-8" standalone="no"?>
<!-- Generator: Adobe Illustrator 19.0.0, SVG Export Plug-In . SVG Version: 6.00 Build 0)  -->

<svg
   xmlns:dc="http://purl.org/dc/elements/1.1/"
   xmlns:cc="http://creativecommons.org/ns#"
   xmlns:rdf="http://www.w3.org/1999/02/22-rdf-syntax-ns#"
   xmlns:svg="http://www.w3.org/2000/svg"
   xmlns="http://www.w3.org/2000/svg"
   xmlns:sodipodi="http://sodipodi.sourceforge.net/DTD/sodipodi-0.dtd"
   xmlns:inkscape="http://www.inkscape.org/namespaces/inkscape"
   version="1.1"
   id="Layer_1"
   x="0px"
   y="0px"
   viewBox="0 0 299.997 299.997"
   style="enable-background:new 0 0 299.997 299.997;"
   xml:space="preserve"
   sodipodi:docname="mail.svg"
   inkscape:version="0.92.5 (0.92.5+68)"><metadata
   id="metadata937"><rdf:RDF><cc:Work
       rdf:about=""><dc:format>image/svg+xml</dc:format><dc:type
         rdf:resource="http://purl.org/dc/dcmitype/StillImage" /></cc:Work></rdf:RDF></metadata><defs
   id="defs935" /><sodipodi:namedview
   pagecolor="#ffffff"
   bordercolor="#666666"
   borderopacity="1"
   objecttolerance="10"
   gridtolerance="10"
   guidetolerance="10"
   inkscape:pageopacity="0"
   inkscape:pageshadow="2"
   inkscape:window-width="1859"
   inkscape:window-height="1056"
   id="namedview933"
   showgrid="false"
   inkscape:zoom="1.02"
   inkscape:cx="135.08747"
   inkscape:cy="149.9985"
   inkscape:window-x="61"
   inkscape:window-y="24"
   inkscape:window-maximized="1"
   inkscape:current-layer="Layer_1" />
<ellipse
   style="fill:#ffffff;fill-opacity:1;stroke:none;stroke-width:28.41786957;stroke-linecap:round;stroke-linejoin:miter;stroke-miterlimit:4;stroke-dasharray:none;stroke-opacity:1"
   id="path5870"
   cx="150.00749"
   cy="149.9985"
   rx="149.9975"
   ry="149.9985" /><g
   id="g900"
   style="fill:#43b3c1;fill-opacity:1">
	<g
   id="g898"
   style="fill:#43b3c1;fill-opacity:1">
		<path
   d="M149.996,0C67.157,0,0.001,67.158,0.001,149.997c0,82.837,67.156,150,149.995,150s150-67.163,150-150    C299.996,67.158,232.835,0,149.996,0z M149.999,52.686l88.763,55.35H61.236L149.999,52.686z M239.868,196.423h-0.009    c0,8.878-7.195,16.072-16.072,16.072H76.211c-8.878,0-16.072-7.195-16.072-16.072v-84.865c0-0.939,0.096-1.852,0.252-2.749    l84.808,52.883c0.104,0.065,0.215,0.109,0.322,0.169c0.112,0.062,0.226,0.122,0.34,0.179c0.599,0.309,1.216,0.558,1.847,0.721    c0.065,0.018,0.13,0.026,0.195,0.041c0.692,0.163,1.393,0.265,2.093,0.265h0.005c0.005,0,0.01,0,0.01,0    c0.7,0,1.401-0.099,2.093-0.265c0.065-0.016,0.13-0.023,0.195-0.041c0.63-0.163,1.245-0.412,1.847-0.721    c0.114-0.057,0.228-0.117,0.34-0.179c0.106-0.06,0.218-0.104,0.322-0.169l84.808-52.883c0.156,0.897,0.252,1.808,0.252,2.749    V196.423z"
   id="path896"
   style="fill:#43b3c1;fill-opacity:1" />
	</g>
</g>
<g
   id="g902">
</g>
<g
   id="g904">
</g>
<g
   id="g906">
</g>
<g
   id="g908">
</g>
<g
   id="g910">
</g>
<g
   id="g912">
</g>
<g
   id="g914">
</g>
<g
   id="g916">
</g>
<g
   id="g918">
</g>
<g
   id="g920">
</g>
<g
   id="g922">
</g>
<g
   id="g924">
</g>
<g
   id="g926">
</g>
<g
   id="g928">
</g>
<g
   id="g930">
</g>
</svg>