<?xml version="1.0" encoding="UTF-8" standalone="no"?>
<!-- Generator: Adobe Illustrator 18.0.0, SVG Export Plug-In . SVG Version: 6.00 Build 0)  -->

<svg
   xmlns:dc="http://purl.org/dc/elements/1.1/"
   xmlns:cc="http://creativecommons.org/ns#"
   xmlns:rdf="http://www.w3.org/1999/02/22-rdf-syntax-ns#"
   xmlns:svg="http://www.w3.org/2000/svg"
   xmlns="http://www.w3.org/2000/svg"
   xmlns:sodipodi="http://sodipodi.sourceforge.net/DTD/sodipodi-0.dtd"
   xmlns:inkscape="http://www.inkscape.org/namespaces/inkscape"
   version="1.1"
   id="Capa_1"
   x="0px"
   y="0px"
   viewBox="0 0 112.196 112.196"
   style="enable-background:new 0 0 112.196 112.196;"
   xml:space="preserve"
   sodipodi:docname="instagram.svg"
   inkscape:version="0.92.5 (0.92.5+68)"><metadata
   id="metadata935"><rdf:RDF><cc:Work
       rdf:about=""><dc:format>image/svg+xml</dc:format><dc:type
         rdf:resource="http://purl.org/dc/dcmitype/StillImage" /></cc:Work></rdf:RDF></metadata><defs
   id="defs933">
	
	
</defs><sodipodi:namedview
   pagecolor="#ffffff"
   bordercolor="#666666"
   borderopacity="1"
   objecttolerance="10"
   gridtolerance="10"
   guidetolerance="10"
   inkscape:pageopacity="0"
   inkscape:pageshadow="2"
   inkscape:window-width="1859"
   inkscape:window-height="1056"
   id="namedview931"
   showgrid="false"
   inkscape:zoom="7.23"
   inkscape:cx="50.521417"
   inkscape:cy="56.098"
   inkscape:window-x="61"
   inkscape:window-y="24"
   inkscape:window-maximized="1"
   inkscape:current-layer="Capa_1" />
<circle
   r="56.098"
   cy="56.097"
   cx="56.098"
   style="fill:#43b3c1;fill-opacity:1"
   id="XMLID_115_" /><path
   inkscape:connector-curvature="0"
   id="path896"
   d="m 79.124,22.506 h -46.05 c -5.83,0 -10.56,4.73 -10.56,10.57 v 46.05 c 0,5.83 4.73,10.56 10.56,10.56 h 46.05 c 5.83,0 10.56,-4.73 10.56,-10.56 v -46.05 c 0,-5.84 -4.73,-10.57 -10.56,-10.57 z m -7.141,7.77 8.44,-0.02 h 0.02 c 0.81,-0.01 1.47,0.65 1.47,1.45 v 8.47 c 0,0.81 -0.65,1.46 -1.46,1.46 l -8.43,0.03 c -0.81,0 -1.46,-0.65 -1.46,-1.45 l -0.03,-8.47 c -0.01,-0.81 0.64,-1.46 1.45,-1.47 z m -26.179,20.05 c 0.22,-0.38 0.45,-0.76 0.71,-1.12 2.15,-2.98 5.64,-4.93 9.58,-4.93 3.95,0 7.44,1.95 9.59,4.93 0.26,0.36 0.49,0.74 0.71,1.13 0.96,1.7 1.53,3.67 1.53,5.76 0,6.52 -5.31,11.82 -11.83,11.82 -6.52,0 -11.82,-5.3 -11.82,-11.82 -10e-4,-2.09 0.56,-4.06 1.53,-5.77 z m 37.34,26.38 c 0,3.55 -2.89,6.44 -6.44,6.44 h -41.21 c -3.55,0 -6.44,-2.89 -6.44,-6.44 v -27.5 h 10.03 c -0.25,0.61 -0.47,1.25 -0.65,1.89 -0.46,1.59 -0.7,3.27 -0.7,5 0,10.13 8.24,18.37 18.36,18.37 10.13,0 18.37,-8.24 18.37,-18.37 0,-1.73 -0.25,-3.41 -0.7,-5 -0.19,-0.64 -0.4,-1.28 -0.65,-1.89 h 10.03 z"
   style="fill:#ffffff" />
<g
   id="g900">
</g>
<g
   id="g902">
</g>
<g
   id="g904">
</g>
<g
   id="g906">
</g>
<g
   id="g908">
</g>
<g
   id="g910">
</g>
<g
   id="g912">
</g>
<g
   id="g914">
</g>
<g
   id="g916">
</g>
<g
   id="g918">
</g>
<g
   id="g920">
</g>
<g
   id="g922">
</g>
<g
   id="g924">
</g>
<g
   id="g926">
</g>
<g
   id="g928">
</g>
</svg>