<?xml version="1.0" encoding="UTF-8" standalone="no"?>
<!-- Generator: Adobe Illustrator 18.0.0, SVG Export Plug-In . SVG Version: 6.00 Build 0)  -->

<svg
   xmlns:dc="http://purl.org/dc/elements/1.1/"
   xmlns:cc="http://creativecommons.org/ns#"
   xmlns:rdf="http://www.w3.org/1999/02/22-rdf-syntax-ns#"
   xmlns:svg="http://www.w3.org/2000/svg"
   xmlns="http://www.w3.org/2000/svg"
   xmlns:sodipodi="http://sodipodi.sourceforge.net/DTD/sodipodi-0.dtd"
   xmlns:inkscape="http://www.inkscape.org/namespaces/inkscape"
   version="1.1"
   id="Capa_1"
   x="0px"
   y="0px"
   viewBox="0 0 112.196 112.196"
   style="enable-background:new 0 0 112.196 112.196;"
   xml:space="preserve"
   sodipodi:docname="linkedin.svg"
   inkscape:version="0.92.5 (0.92.5+68)"><metadata
   id="metadata941"><rdf:RDF><cc:Work
       rdf:about=""><dc:format>image/svg+xml</dc:format><dc:type
         rdf:resource="http://purl.org/dc/dcmitype/StillImage" /></cc:Work></rdf:RDF></metadata><defs
   id="defs939">
		
	</defs><sodipodi:namedview
   pagecolor="#ffffff"
   bordercolor="#666666"
   borderopacity="1"
   objecttolerance="10"
   gridtolerance="10"
   guidetolerance="10"
   inkscape:pageopacity="0"
   inkscape:pageshadow="2"
   inkscape:window-width="1859"
   inkscape:window-height="1056"
   id="namedview937"
   showgrid="false"
   inkscape:zoom="19.117266"
   inkscape:cx="47.048589"
   inkscape:cy="51.293032"
   inkscape:window-x="61"
   inkscape:window-y="24"
   inkscape:window-maximized="1"
   inkscape:current-layer="g904" />
<g
   id="g904">
	<circle
   style="fill:#43b3c1;fill-opacity:1"
   cx="56.098"
   cy="56.097"
   r="56.098"
   id="circle898" />
	<path
   inkscape:connector-curvature="0"
   id="path900"
   d="M 89.616,60.611 V 83.739 H 76.207 V 62.161 c 0,-5.418 -1.936,-9.118 -6.791,-9.118 -3.705,0 -5.906,2.491 -6.878,4.903 -0.353,0.862 -0.444,2.059 -0.444,3.268 v 22.524 h -13.41 c 0,0 0.18,-36.546 0,-40.329 h 13.411 v 5.715 c -0.027,0.045 -0.065,0.089 -0.089,0.132 h 0.089 v -0.132 c 1.782,-2.742 4.96,-6.662 12.085,-6.662 8.822,0 15.436,5.764 15.436,18.149 z M 34.656,23.969 c -4.587,0 -7.588,3.011 -7.588,6.967 0,3.872 2.914,6.97 7.412,6.97 h 0.087 c 4.677,0 7.585,-3.098 7.585,-6.97 -0.089,-3.956 -2.908,-6.967 -7.496,-6.967 z m -6.791,59.77 H 41.27 V 43.409 H 27.865 Z"
   style="fill:#ffffff;fill-opacity:1" />
</g>
<g
   id="g906">
</g>
<g
   id="g908">
</g>
<g
   id="g910">
</g>
<g
   id="g912">
</g>
<g
   id="g914">
</g>
<g
   id="g916">
</g>
<g
   id="g918">
</g>
<g
   id="g920">
</g>
<g
   id="g922">
</g>
<g
   id="g924">
</g>
<g
   id="g926">
</g>
<g
   id="g928">
</g>
<g
   id="g930">
</g>
<g
   id="g932">
</g>
<g
   id="g934">
</g>
</svg>